<svg xmlns="http://www.w3.org/2000/svg" viewBox="0 0 512 512" role="img" aria-label="Streammore app icon">
  <defs>
    <linearGradient id="violet" x1="0" y1="0" x2="1" y2="1">
      <stop offset="0" stop-color="#B794FF"/>
      <stop offset="0.52" stop-color="#9B6DFF"/>
      <stop offset="1" stop-color="#6D3DE0"/>
    </linearGradient>
  </defs>
  <rect width="512" height="512" rx="112" fill="#0A0810"/>
  <rect x="52" y="52" width="408" height="408" rx="96" fill="url(#violet)"/>
  <path d="M365 166c-35-33-80-51-132-51-63 0-107 28-107 70 0 35 28 53 91 68l44 10c51 12 74 28 74 62 0 49-48 83-116 83-54 0-104-21-137-56l40-44c26 28 60 44 99 44 32 0 57-12 57-31 0-16-16-26-53-35l-44-10c-62-15-89-42-89-81 0-56 52-91 129-91 62 0 114 19 158 55z" fill="#FFF"/>
  <path d="M302 226l82 46-82 46z" fill="#0A0810"/>
</svg>
